<?xml version="1.0" encoding="UTF-8" standalone="yes"?><svg width="29" height="18" xmlns="http://www.w3.org/2000/svg" xmlns:xlink="http://www.w3.org/1999/xlink"><g class="metafile" snaptohint="Note" xbk_transform="rotate(0.00,14.91,9.22)"><path fill-rule="evenodd" d="M0.68 11.82 L0.91 12.22 L1.45 13.01 L2.15 13.83 L3.00 14.57 L4.00 15.36 L5.05 16.02 L6.21 16.58 L7.40 17.06 L8.70 17.52 L10.06 17.89 L11.42 18.11 L13.72 18.37 L15.87 18.43 L17.32 18.37 L18.71 18.23 L20.10 18.03 L21.40 17.66 L23.92 16.81 L26.59 15.34 L27.41 14.57 L28.12 13.72 L28.83 12.87 L29.37 11.71 L29.62 10.83 L29.82 9.92 L29.76 8.96 L29.62 8.08 L29.31 7.17 L28.91 6.32 L28.32 5.47 L27.61 4.71 L26.76 3.97 L25.82 3.26 L24.72 2.52 L22.37 1.42 L19.76 0.62 L16.92 0.17 L14.85 0.00 L12.73 0.06 L10.97 0.26 L9.61 0.51 L7.68 1.02 L5.30 1.98 L3.60 2.98 L2.72 3.63 L1.90 4.31 L1.25 5.13 L0.71 5.92 L0.37 6.77 L0.11 7.68 L0.00 8.67 L0.00 9.58 L0.17 10.46 L0.45 11.31 L0.68 11.82 L2.89 10.97 L2.81 10.71 L2.75 9.92 L3.00 9.16 L3.57 8.42 L4.42 7.82 L5.50 7.23 L7.65 6.41 L9.61 5.87 L12.76 5.41 L16.16 5.16 L18.17 5.13 L20.07 5.22 L21.66 5.36 L23.16 5.73 L24.35 6.07 L25.40 6.55 L25.51 6.66 L26.02 7.26 L26.25 8.28 L26.11 9.01 L25.82 9.58 L25.26 10.18 L24.26 10.91 L22.88 11.57 L21.12 12.22 L19.30 12.73 L17.72 13.12 L16.30 13.35 L15.11 13.52 L13.41 13.66 L11.76 13.72 L9.30 13.63 L7.00 13.27 L5.70 12.98 L4.62 12.56 L3.77 12.16 L3.12 11.42 L2.89 10.97 z" fill="#1f1a17" stroke="#1f1a17" stroke-width="0" transform="rotate(0.00,14.91,9.22)"/></g></svg>